<?xml version="1.0" encoding="UTF-8"?>
<!DOCTYPE svg PUBLIC "-//W3C//DTD SVG 1.1//EN" "http://www.w3.org/Graphics/SVG/1.1/DTD/svg11.dtd">
<svg xmlns="http://www.w3.org/2000/svg" version="1.1" width="486px" height="502px" style="shape-rendering:geometricPrecision; text-rendering:geometricPrecision; image-rendering:optimizeQuality; fill-rule:evenodd; clip-rule:evenodd" xmlns:xlink="http://www.w3.org/1999/xlink">
<g><path style="opacity:1" fill="#fefefe" d="M -0.5,-0.5 C 161.5,-0.5 323.5,-0.5 485.5,-0.5C 485.5,166.833 485.5,334.167 485.5,501.5C 323.5,501.5 161.5,501.5 -0.5,501.5C -0.5,334.167 -0.5,166.833 -0.5,-0.5 Z"/></g>
<g><path style="opacity:1" fill="#ffe8b9" d="M 255.5,3.5 C 262.158,2.8337 268.992,2.50036 276,2.5C 285.389,2.27829 294.556,2.94496 303.5,4.5C 287.517,3.63379 271.517,3.30045 255.5,3.5 Z"/></g>
<g><path style="opacity:1" fill="#fde6bf" d="M 248.5,4.5 C 243.345,5.82676 238.012,6.82676 232.5,7.5C 237.372,4.8315 242.705,3.8315 248.5,4.5 Z"/></g>
<g><path style="opacity:1" fill="#f7b331" d="M 255.5,3.5 C 271.517,3.30045 287.517,3.63379 303.5,4.5C 308.153,4.36233 312.487,5.36233 316.5,7.5C 317.97,10.5886 317.303,13.0886 314.5,15C 268.297,23.4952 229.464,45.3286 198,80.5C 183.529,97.1227 171.862,115.456 163,135.5C 157.911,148.644 153.745,161.977 150.5,175.5C 148.776,180.449 147.609,185.782 147,191.5C 146.173,205.006 146.34,218.34 147.5,231.5C 151.608,285.621 173.275,330.954 212.5,367.5C 237.607,391.892 267.274,408.225 301.5,416.5C 303.905,417.768 306.572,418.435 309.5,418.5C 313.316,419.482 317.316,420.149 321.5,420.5C 323.435,421.15 325.435,421.483 327.5,421.5C 329.948,422.473 332.615,422.806 335.5,422.5C 345.992,423.659 356.659,423.825 367.5,423C 369.058,422.79 370.391,422.29 371.5,421.5C 373.415,421.784 375.081,421.451 376.5,420.5C 381.444,420.246 386.111,419.246 390.5,417.5C 408.474,414.514 425.474,408.68 441.5,400C 448.324,397.751 450.658,399.918 448.5,406.5C 413.875,441.99 372.208,465.323 323.5,476.5C 316.623,476.981 309.957,477.981 303.5,479.5C 300.833,479.5 298.167,479.5 295.5,479.5C 282.167,480.833 268.833,480.833 255.5,479.5C 253.833,479.5 252.167,479.5 250.5,479.5C 244.36,477.919 238.36,475.752 232.5,473C 223.993,472.785 215.659,471.952 207.5,470.5C 201.482,468.483 195.482,466.15 189.5,463.5C 172.355,457.262 156.355,448.928 141.5,438.5C 94.4736,404.466 63.1403,359.466 47.5,303.5C 46.3141,299.497 45.3141,295.497 44.5,291.5C 44.5,291.167 44.5,290.833 44.5,290.5C 44.3347,286.818 44.5014,283.152 45,279.5C 45.3333,280.167 45.6667,280.833 46,281.5C 46.8236,278.118 46.657,274.784 45.5,271.5C 43.8857,280.7 42.8857,280.7 42.5,271.5C 44.4377,261.009 44.9377,250.343 44,239.5C 43.9523,246.624 43.1189,253.624 41.5,260.5C 40.5007,245.515 40.1673,230.515 40.5,215.5C 41.4731,213.052 41.8064,210.385 41.5,207.5C 41.5,206.833 41.5,206.167 41.5,205.5C 43.9561,201.262 44.9561,196.596 44.5,191.5C 45.4345,190.432 45.7678,189.099 45.5,187.5C 47.2131,184.275 49.5464,181.441 52.5,179C 51.4392,177.151 50.7725,175.151 50.5,173C 51.8172,169.247 52.8172,165.413 53.5,161.5C 60.0905,141.558 69.2571,122.891 81,105.5C 110.997,63.7381 150.164,33.9048 198.5,16C 209.679,12.5387 221.012,9.70536 232.5,7.5C 238.012,6.82676 243.345,5.82676 248.5,4.5C 250.806,4.00745 253.139,3.67412 255.5,3.5 Z"/></g>
<g><path style="opacity:1" fill="#262533" d="M 390.5,417.5 C 386.111,419.246 381.444,420.246 376.5,420.5C 360.174,421.113 343.84,421.446 327.5,421.5C 325.435,421.483 323.435,421.15 321.5,420.5C 321.082,419.778 320.416,419.278 319.5,419C 316.183,418.502 312.85,418.335 309.5,418.5C 307.162,416.96 304.495,416.294 301.5,416.5C 267.274,408.225 237.607,391.892 212.5,367.5C 214.923,344.448 217.756,321.448 221,298.5C 229.513,264.654 250.679,243.487 284.5,235C 291.791,233.919 299.124,233.253 306.5,233C 313.046,230.982 318.213,227.148 322,221.5C 324.665,210.174 327.332,198.841 330,187.5C 331.333,184.167 332.667,180.833 334,177.5C 348.865,160.967 364.699,145.467 381.5,131C 386.476,129.814 389.476,131.647 390.5,136.5C 389.361,142.31 388.361,148.143 387.5,154C 387.833,154.833 388.167,155.667 388.5,156.5C 405.43,160.591 414.597,171.258 416,188.5C 417.569,192.072 419.902,195.072 423,197.5C 425.356,207.107 423.189,215.607 416.5,223C 411.25,224.174 405.916,224.841 400.5,225C 391.752,229.545 388.585,236.712 391,246.5C 400.534,264.951 400.867,283.617 392,302.5C 387.04,312.747 380.374,321.747 372,329.5C 366.952,336.031 365.285,343.365 367,351.5C 368.795,360.81 370.462,370.143 372,379.5C 373.736,386.237 377.903,390.737 384.5,393C 386.956,395.408 388.789,398.241 390,401.5C 390.499,406.823 390.666,412.156 390.5,417.5 Z"/></g>
<g><path style="opacity:1" fill="#f3b94d" d="M 53.5,161.5 C 52.8172,165.413 51.8172,169.247 50.5,173C 50.7725,175.151 51.4392,177.151 52.5,179C 49.5464,181.441 47.2131,184.275 45.5,187.5C 47.5506,179.174 49.7173,170.84 52,162.5C 52.3826,161.944 52.8826,161.611 53.5,161.5 Z"/></g>
<g><path style="opacity:1" fill="#f6c877" d="M 150.5,175.5 C 147.873,194.062 146.873,212.729 147.5,231.5C 146.34,218.34 146.173,205.006 147,191.5C 147.609,185.782 148.776,180.449 150.5,175.5 Z"/></g>
<g><path style="opacity:1" fill="#f2c46e" d="M 44.5,191.5 C 44.9561,196.596 43.9561,201.262 41.5,205.5C 42.5085,200.717 43.5085,196.05 44.5,191.5 Z"/></g>
<g><path style="opacity:1" fill="#fdf0cd" d="M 41.5,207.5 C 41.8064,210.385 41.4731,213.052 40.5,215.5C 39.2555,234.011 39.2555,252.678 40.5,271.5C 39.6909,269.708 39.1909,267.708 39,265.5C 38.3333,248.5 38.3333,231.5 39,214.5C 39.6976,211.996 40.5309,209.663 41.5,207.5 Z"/></g>
<g><path style="opacity:1" fill="#f2b644" d="M 40.5,215.5 C 40.1673,230.515 40.5007,245.515 41.5,260.5C 43.1189,253.624 43.9523,246.624 44,239.5C 44.9377,250.343 44.4377,261.009 42.5,271.5C 42.8857,280.7 43.8857,280.7 45.5,271.5C 46.657,274.784 46.8236,278.118 46,281.5C 45.6667,280.833 45.3333,280.167 45,279.5C 44.5014,283.152 44.3347,286.818 44.5,290.5C 42.9094,284.213 41.5761,277.88 40.5,271.5C 39.2555,252.678 39.2555,234.011 40.5,215.5 Z"/></g>
<g><path style="opacity:1" fill="#f8e8bb" d="M 44.5,291.5 C 45.3141,295.497 46.3141,299.497 47.5,303.5C 46.0689,303.119 45.2355,302.119 45,300.5C 44.502,297.518 44.3354,294.518 44.5,291.5 Z"/></g>
<g><path style="opacity:1" fill="#503718" d="M 301.5,416.5 C 304.495,416.294 307.162,416.96 309.5,418.5C 306.572,418.435 303.905,417.768 301.5,416.5 Z"/></g>
<g><path style="opacity:1" fill="#3e2b1d" d="M 309.5,418.5 C 312.85,418.335 316.183,418.502 319.5,419C 320.416,419.278 321.082,419.778 321.5,420.5C 317.316,420.149 313.316,419.482 309.5,418.5 Z"/></g>
<g><path style="opacity:1" fill="#3a2a17" d="M 376.5,420.5 C 375.081,421.451 373.415,421.784 371.5,421.5C 359.516,422.277 347.516,422.61 335.5,422.5C 332.615,422.806 329.948,422.473 327.5,421.5C 343.84,421.446 360.174,421.113 376.5,420.5 Z"/></g>
<g><path style="opacity:1" fill="#bf9447" d="M 371.5,421.5 C 370.391,422.29 369.058,422.79 367.5,423C 356.659,423.825 345.992,423.659 335.5,422.5C 347.516,422.61 359.516,422.277 371.5,421.5 Z"/></g>
<g><path style="opacity:1" fill="#272633" d="M 141.5,438.5 C 156.355,448.928 172.355,457.262 189.5,463.5C 180.164,468.172 170.164,471.005 159.5,472C 144.167,472.333 128.833,472.667 113.5,473C 106.87,474.543 100.537,476.877 94.5,480C 86.8333,485.667 79.1667,491.333 71.5,497C 56.2236,499.387 48.7236,492.887 49,477.5C 49.8061,474.554 51.1395,471.888 53,469.5C 77.3717,444.985 106.872,434.652 141.5,438.5 Z"/></g>
<g><path style="opacity:1" fill="#f2ba4e" d="M 207.5,470.5 C 215.659,471.952 223.993,472.785 232.5,473C 238.36,475.752 244.36,477.919 250.5,479.5C 235.73,477.881 221.396,474.881 207.5,470.5 Z"/></g>
<g><path style="opacity:1" fill="#fef2c6" d="M 323.5,476.5 C 322.737,477.268 321.737,477.768 320.5,478C 314.851,478.757 309.184,479.257 303.5,479.5C 309.957,477.981 316.623,476.981 323.5,476.5 Z"/></g>
<g><path style="opacity:1" fill="#f8e6b0" d="M 255.5,479.5 C 268.833,480.833 282.167,480.833 295.5,479.5C 289.246,481.054 282.746,481.72 276,481.5C 268.93,481.697 262.097,481.03 255.5,479.5 Z"/></g>
</svg>
